<svg xmlns="http://www.w3.org/2000/svg" width="115.39" height="115.391" viewBox="0 0 115.39 115.391">
  <defs>
    <style>
      .a {
        fill: #c1c2c6;
      }

      .b {
        fill: #b1b2b5;
      }

      .c {
        fill: #fff;
      }

      .d {
        fill: #3b4350;
      }

      .e {
        fill: #ff642e;
      }

      .f {
        fill: #d84923;
      }
    </style>
  </defs>
  <g transform="translate(-735.516 -724.387)">
    <path class="a" d="M850.906,782.076a57.7,57.7,0,1,1-57.7-57.689A57.7,57.7,0,0,1,850.906,782.076Z" />
    <path class="b" d="M760.182,814.136l25.031,25.024a57.453,57.453,0,0,0,64.722-67.38l-23.7-23.7Z" />
    <path class="c" d="M809.725,814.136H760.182V748.077H826.24v49.544Z" />
    <path class="d"
      d="M779.463,782.341l-7.121-1.268a8.9,8.9,0,0,1,3.412-5.214q2.521-1.818,7.148-1.819,5.309,0,7.674,1.984A6.208,6.208,0,0,1,792.941,781a5.541,5.541,0,0,1-.961,3.175,8.243,8.243,0,0,1-2.9,2.5,8.482,8.482,0,0,1,2.4.9,5.853,5.853,0,0,1,2.1,2.194,6.577,6.577,0,0,1,.75,3.241,9.01,9.01,0,0,1-1.24,4.542,8.287,8.287,0,0,1-3.572,3.351,13.621,13.621,0,0,1-6.12,1.169,16.022,16.022,0,0,1-5.832-.86,8.787,8.787,0,0,1-3.515-2.547,11.785,11.785,0,0,1-2.117-4.211l7.529-.992a5.763,5.763,0,0,0,1.379,3.141,3.271,3.271,0,0,0,2.375.882,3.227,3.227,0,0,0,2.519-1.113,4.217,4.217,0,0,0,1.014-2.954,4.128,4.128,0,0,0-.975-2.922,3.425,3.425,0,0,0-2.634-1.036,9.551,9.551,0,0,0-2.444.452l.393-5.391a6.69,6.69,0,0,0,.98.1,3.424,3.424,0,0,0,2.465-.948,2.994,2.994,0,0,0,.992-2.237,2.652,2.652,0,0,0-.74-1.974,2.75,2.75,0,0,0-2.039-.738,3.01,3.01,0,0,0-2.16.793A4.926,4.926,0,0,0,779.463,782.341Z" />
    <path class="d"
      d="M811.488,774.04v27.571h-7.619V783.543a23.566,23.566,0,0,1-3.582,2.282,28.25,28.25,0,0,1-4.332,1.664V781.3a18.112,18.112,0,0,0,5.969-2.977,12.111,12.111,0,0,0,3.33-4.288Z" />
    <path class="e" d="M809.725,814.136V797.621H826.24Z" />
    <rect class="e" width="66.059" height="17.342" transform="translate(760.182 748.077)" />
    <rect class="f" width="33.029" height="17.342" transform="translate(793.211 748.077)" />
    <rect class="d" width="4.674" height="10.451" transform="translate(774.426 742.852)" />
    <rect class="d" width="4.676" height="10.451" transform="translate(782.648 742.852)" />
    <rect class="d" width="4.674" height="10.451" transform="translate(790.873 742.852)" />
    <rect class="d" width="4.674" height="10.451" transform="translate(799.098 742.852)" />
    <rect class="d" width="4.674" height="10.451" transform="translate(807.322 742.852)" />
  </g>
</svg>