<?xml version="1.0" encoding="utf-8"?>
<!-- Generator: Adobe Illustrator 18.0.0, SVG Export Plug-In . SVG Version: 6.00 Build 0)  -->
<!DOCTYPE svg PUBLIC "-//W3C//DTD SVG 1.1//EN" "http://www.w3.org/Graphics/SVG/1.1/DTD/svg11.dtd">
<svg version="1.1" id="communication_and_media" xmlns="http://www.w3.org/2000/svg" xmlns:xlink="http://www.w3.org/1999/xlink"
	 x="0px" y="0px" viewBox="0 0 100 100" style="enable-background:new 0 0 100 100;" xml:space="preserve">
<style type="text/css">
	.st0{fill:#71A58A;}
	.st1{fill:#FF6F69;}
	.st2{fill:#99734A;}
	.st3{fill:#825E3B;}
	.st4{fill:#FFCC5C;}
	.st5{fill:#639376;}
	.st6{fill:#FFEEAD;}
	.st7{fill:#E05858;}
	.st8{fill:#C1821E;}
	.st9{fill:#B28559;}
	.st10{fill:#BF4343;}
	.st11{fill:#96CEB4;}
	.st12{fill:none;}
	.st13{fill:#C9B77D;}
	.st14{fill:#D6A041;}
	.st15{fill:#AA9865;}
	.st16{fill:#FFFFFF;}
	.st17{fill:#FF6F69;stroke:#FFCC5C;stroke-linecap:round;stroke-linejoin:round;stroke-miterlimit:10;}
	.st18{fill:none;stroke:#FF6F69;stroke-width:6;stroke-miterlimit:10;}
</style>
<g id="calendar_1_">
	<g>
		<g>
			<g>
				<path class="st13" d="M85.516,8.044H14.484c-4.907,0-8.884,3.978-8.884,8.884v74.187c0,4.907,3.978,8.885,8.884,8.885h71.032
					c4.907,0,8.884-3.978,8.884-8.885V16.928C94.4,12.021,90.422,8.044,85.516,8.044z"/>
			</g>
		</g>
		<g>
			<g>
				<path class="st6" d="M85.516,8.044H14.484c-4.907,0-8.884,3.978-8.884,8.885v74.187c0,4.907,3.978,8.885,8.884,8.885h58.412
					L94.4,78.496V16.928C94.4,12.021,90.422,8.044,85.516,8.044z"/>
			</g>
		</g>
		<g>
			<g>
				<g>
					<path class="st2" d="M48.038,62.709c1.914-1.316,4.307-2.872,4.307-9.032c0-7.955-4.486-11.245-12.142-11.245
						c-3.589,0-7.357,0.479-9.749,3.17c-1.555,1.735-2.213,4.127-2.213,6.041c0,2.752,1.794,4.605,4.426,4.605
						c3.23,0,4.187-2.691,4.306-2.99c0.179-0.658,0.239-1.315,0.359-1.973c0.12-0.599,0.419-2.213,2.393-2.213
						c2.632,0,2.99,2.752,2.99,5.562c0,3.11-0.359,4.247-2.273,4.606c-0.538,0.059-1.076,0.059-1.675,0.119
						c-0.957,0.12-2.213,0.419-2.752,1.975c-0.299,0.657-0.299,1.256-0.299,1.495c0,1.855,0.957,2.99,2.332,3.41
						c0.419,0.12,2.333,0.359,2.692,0.479c1.555,0.418,2.273,1.674,2.273,5.562c0,3.947-0.479,6.28-3.23,6.28
						c-2.392,0-2.572-1.914-2.632-2.872c-0.179-2.512-0.239-2.811-0.478-3.529c-0.598-1.735-2.093-2.692-3.948-2.692
						c-2.99,0-4.844,2.093-4.844,5.803c0,2.392,0.658,4.546,1.735,5.981c2.512,3.41,6.998,3.887,10.227,3.887
						c10.228,0,13.039-5.323,13.039-12.679C52.823,65.101,49.833,63.606,48.038,62.709z"/>
				</g>
			</g>
			<g>
				<g>
					<path class="st2" d="M70.204,43.39c-1.017-0.778-2.153-0.898-3.05-0.898c-0.598,0-2.811,0-4.127,2.154
						c-0.359,0.657-0.598,1.435-0.957,2.093c-0.778,1.615-1.974,2.273-3.35,2.572c-1.675,0.418-2.093,0.478-2.692,1.136
						c-0.478,0.538-0.897,1.435-0.897,2.332c0,0.838,0.359,1.735,1.016,2.333c0.958,0.897,2.153,0.956,3.23,0.956h2.871v22.37
						c0,2.093,0,5.204,3.17,6.16c0.479,0.12,1.076,0.24,1.914,0.24c0.957,0,2.213-0.12,3.23-1.196
						c1.436-1.376,1.555-3.23,1.555-5.383V48.653C72.058,46.858,72.058,44.825,70.204,43.39z"/>
				</g>
			</g>
		</g>
		<g>
			<g>
				<path class="st7" d="M85.516,8.044H14.484c-4.907,0-8.884,3.978-8.884,8.885v12.744h88.8V16.928
					C94.4,12.021,90.422,8.044,85.516,8.044z"/>
			</g>
		</g>
		<g>
			<g>
				<g>
					<g>
						<circle class="st1" cx="20.733" cy="18.464" r="5.574"/>
					</g>
				</g>
				<g>
					<g>
						<circle class="st10" cx="20.733" cy="18.464" r="3.28"/>
					</g>
				</g>
				<g>
					<g>
						<path class="st11" d="M20.733,0c-1.204,0-2.19,0.985-2.19,2.19v15.778c0,1.204,0.986,2.19,2.19,2.19
							c1.205,0,2.19-0.986,2.19-2.19V2.19C22.923,0.985,21.938,0,20.733,0z"/>
					</g>
				</g>
			</g>
			<g>
				<g>
					<g>
						<circle class="st1" cx="40.244" cy="18.464" r="5.574"/>
					</g>
				</g>
				<g>
					<g>
						<circle class="st10" cx="40.244" cy="18.464" r="3.28"/>
					</g>
				</g>
				<g>
					<g>
						<path class="st11" d="M40.244,0c-1.205,0-2.19,0.985-2.19,2.19v15.778c0,1.204,0.985,2.19,2.19,2.19
							c1.204,0,2.19-0.986,2.19-2.19V2.19C42.434,0.985,41.449,0,40.244,0z"/>
					</g>
				</g>
			</g>
			<g>
				<g>
					<g>
						<circle class="st1" cx="59.755" cy="18.464" r="5.574"/>
					</g>
				</g>
				<g>
					<g>
						<circle class="st10" cx="59.755" cy="18.464" r="3.28"/>
					</g>
				</g>
				<g>
					<g>
						<path class="st11" d="M59.755,0c-1.204,0-2.19,0.985-2.19,2.19v15.778c0,1.204,0.986,2.19,2.19,2.19
							c1.205,0,2.19-0.986,2.19-2.19V2.19C61.945,0.985,60.96,0,59.755,0z"/>
					</g>
				</g>
			</g>
			<g>
				<g>
					<g>
						<circle class="st1" cx="79.267" cy="18.464" r="5.574"/>
					</g>
				</g>
				<g>
					<g>
						<circle class="st10" cx="79.267" cy="18.464" r="3.28"/>
					</g>
				</g>
				<g>
					<g>
						<path class="st11" d="M79.267,0L79.267,0c-1.205,0-2.19,0.985-2.19,2.19v15.778c0,1.204,0.985,2.19,2.19,2.19h0
							c1.204,0,2.19-0.986,2.19-2.19V2.19C81.457,0.985,80.471,0,79.267,0z"/>
					</g>
				</g>
			</g>
		</g>
		<g>
			<g>
				<rect x="5.612" y="29.672" class="st13" width="88.788" height="3.15"/>
			</g>
		</g>
	</g>
	<g>
		<g>
			<path class="st0" d="M81.781,78.496c-4.907,0-8.885,3.978-8.885,8.885V100L94.4,78.496H81.781z"/>
		</g>
	</g>
</g>
</svg>
